<svg xmlns="http://www.w3.org/2000/svg" viewBox="0 0 320 512">
  <!--! Font Awesome Pro 6.1.1 by @fontawesome - https://fontawesome.com License - https://fontawesome.com/license (Commercial License) Copyright 2022 Fonticons, Inc. -->
  <title>Humidity</title>
  <path d="M176,323.3V112.4c0-8.8-7.2-16-16-16s-16,7.2-16,16v210.9c-18.6,6.6-32,24.2-32,45.1c0,26.5,21.5,48,48,48s48-21.5,48-48
    C208,347.5,194.6,330,176,323.3z"/>
  <path d="M160,495.6c-34.3,0-66.4-13.2-90.5-37.1c-24.2-23.9-37.5-55.9-37.5-90c0-28.7,9.9-56.2,28.5-79.5l3.5-4.4V112.4
    C64,87,74.2,62.9,92.8,44.7c18.5-18.2,42.7-28.2,68.1-28.2c52.4,0,95.1,43.1,95.1,96v172.1l3.5,4.4c18.6,23.1,28.5,50.6,28.5,79.5
    c0,34.1-13.3,66.1-37.5,90C226.4,482.4,194.3,495.6,160,495.6z M96,298.1c-20.2,18.1-32,44.2-32,71.3c0,52.4,43.1,95.1,96,95.1
    c25.5,0,49.6-9.9,67.8-28c18.2-18,28.2-41.9,28.2-67.1c0-27.2-11.8-53.3-32-71.3V113.3c0-35.3-28.7-64-64-64c-35.3,0-64,28.7-64,64
    V298.1z"/>
  <path d="M232,106.9"/>
</svg>
