<svg xmlns="http://www.w3.org/2000/svg" viewBox="0 0 512 512">
  <!--! Font Awesome Pro 6.1.1 by @fontawesome - https://fontawesome.com License - https://fontawesome.com/license (Commercial License) Copyright 2022 Fonticons, Inc. -->
  <title>Wind Speed</title>
  <path d="M128,496c-8.8,0-16-7.2-16-16s7.2-16,16-16h32c26.5,0,48-21.5,48-48s-21.5-48-48-48H32c-8.8,0-16-7.2-16-16s7.2-16,16-16
    h128c44.1,0,80,35.9,80,80s-35.9,80-80,80H128z M384,400c-8.8,0-16-7.2-16-16s7.2-16,16-16h32c26.5,0,48-21.5,48-48s-21.5-48-48-48
    H32c-8.8,0-16-7.2-16-16s7.2-16,16-16h384c44.1,0,80,35.9,80,80s-35.9,80-80,80H384z M32,176c-8.8,0-16-7.2-16-16s7.2-16,16-16h320
    c26.5,0,48-21.5,48-48s-21.5-48-48-48h-32c-8.8,0-16-7.2-16-16s7.2-16,16-16h32c44.1,0,80,35.9,80,80s-35.9,80-80,80H32z"/>
</svg>
